# xmcd
#
# Track frame offsets: 
#        150
#        23793
#        47045
#
# Disc length: 940 seconds
#
# Revision: 1
# Processed by: cddbd v1.5.2PL0 Copyright (c) Steve Scherf et al.
# Submitted via: ExactAudioCopy v1.3
#
DISCID=1c03aa03
DTITLE=Last Vision Black - Last Vision Black
DYEAR=1994
DGENRE=US Metal
TTITLE0=Just The Same
TTITLE1=The Shadow Wall
TTITLE2=Left In The Hands
EXTD=YEAR: 2000
EXTT0=
EXTT1=
EXTT2=
PLAYORDER=
